<?xml version="1.0" encoding="utf-8"?>
<!-- Generator: Adobe Illustrator 19.1.1, SVG Export Plug-In . SVG Version: 6.00 Build 0)  -->
<svg version="1.1" id="Calque_1" xmlns="http://www.w3.org/2000/svg" xmlns:xlink="http://www.w3.org/1999/xlink" x="0px" y="0px"
	 viewBox="-5 97 600 600" style="enable-background:new -5 97 600 600;" xml:space="preserve">
<style type="text/css">
	.st0{fill:#F2B42E;}
	.st1{fill:#FFFFFF;}
</style>
<path class="st0" d="M335.5,687.7c-12.5,1.6-25.2,2.5-38.1,2.5c-161.6,0-292.6-131-292.6-292.6s131-292.7,292.6-292.7
	c11.1,0,22,0.6,32.7,1.8l-11.8,193.1L335.5,687.7z"/>
<g>
	<path class="st1" d="M530.5,220.6c0,0,0.9,1.2,2.7,3.4c1.7,2.2,4.4,5.4,7.4,9.7c0.8,1.1,1.6,2.2,2.4,3.4c0.4,0.6,0.9,1.2,1.3,1.8
		c0.4,0.6,0.9,1.3,1.3,1.9c1.7,2.7,3.6,5.5,5.6,8.6c1.9,3.2,3.9,6.5,6,10.1c1,1.8,2,3.7,3,5.6s2.1,3.9,3.1,5.9
		c1.9,4.1,4.1,8.3,6,12.8c1,2.2,2,4.5,3,6.9c0.9,2.4,1.8,4.8,2.7,7.2c0.5,1.2,0.9,2.4,1.4,3.7c0.4,1.3,0.8,2.5,1.3,3.8
		c0.9,2.5,1.7,5.1,2.6,7.7c0.8,2.6,1.5,5.3,2.3,8c0.4,1.3,0.8,2.7,1.1,4.1c0.3,1.4,0.7,2.7,1,4.1c2.8,11,4.9,22.6,6.3,34.5
		c0.3,3,0.6,6,1,9c0.2,3,0.4,6,0.6,9c0.3,3,0.3,6,0.3,9.1l0.1,4.6v1.1v0.6v0.3v0.3v2.3c-0.1,3-0.1,6-0.2,9c-0.1,3-0.4,6.1-0.6,9.1
		c-0.1,1.5-0.2,3-0.3,4.5s-0.3,3-0.5,4.5c-0.3,3-0.6,6-1,8.9c-0.9,5.9-1.7,11.8-3,17.5c-0.3,1.4-0.6,2.9-0.9,4.3l-0.4,2.1l-0.5,2.1
		c-0.7,2.8-1.4,5.6-2.1,8.4c-3,11-6.3,21.5-10.3,31.1c-1.8,4.9-3.9,9.5-5.9,14c-1,2.3-2.1,4.4-3.1,6.5c-1.1,2.1-2.1,4.2-3.1,6.2
		c-2.2,4-4.3,7.8-6.3,11.4c-2.2,3.5-4.2,6.9-6.1,10c-2.1,3.1-4,5.9-5.8,8.5c-1.8,2.6-3.6,4.9-5.2,7.1c-3.1,4.3-5.8,7.4-7.6,9.6
		c-1.8,2.2-2.7,3.4-2.7,3.4s0.9-1.2,2.5-3.5s4-5.7,6.8-10.1c1.4-2.2,3.1-4.6,4.7-7.3c1.6-2.7,3.4-5.7,5.2-8.8
		c1.7-3.2,3.6-6.6,5.6-10.2c1.8-3.7,3.8-7.5,5.7-11.5c3.7-8.2,7.6-17.1,11-26.7c3.6-9.6,6.6-20,9.3-30.8c2.7-10.9,4.6-22.2,6.3-33.8
		c0.3-2.9,0.6-5.8,0.9-8.8c0.1-1.5,0.3-2.9,0.4-4.4c0.1-1.5,0.2-2.9,0.3-4.4c0.2-3,0.4-5.9,0.5-8.9s0.1-6,0.2-9l0.1-2.3v-0.1
		c0-0.1,0,0,0-0.1v-0.3v-0.6v-1.1l-0.1-4.5c-0.1-3-0.1-5.9-0.3-8.9s-0.4-5.9-0.5-8.9c-0.3-2.9-0.6-5.9-0.9-8.8
		c-0.2-1.5-0.3-2.9-0.5-4.4c-0.2-1.4-0.4-2.9-0.6-4.3c-0.2-1.4-0.4-2.9-0.6-4.3l-0.3-2.1l-0.4-2.1c-0.5-2.8-1-5.6-1.5-8.4
		c-0.5-2.8-1.2-5.5-1.8-8.3c-0.3-1.4-0.6-2.7-0.9-4.1c-0.3-1.3-0.7-2.7-1-4c-0.7-2.7-1.4-5.3-2.1-7.9c-0.8-2.6-1.6-5.1-2.3-7.6
		c-0.4-1.3-0.8-2.5-1.1-3.8c-0.4-1.2-0.9-2.4-1.3-3.7c-0.8-2.4-1.7-4.8-2.5-7.2c-0.9-2.3-1.8-4.6-2.7-6.9c-1.7-4.5-3.7-8.8-5.4-12.9
		c-0.9-2.1-1.9-4-2.8-6c-0.9-1.9-1.8-3.8-2.7-5.7c-1.9-3.6-3.7-7.1-5.4-10.3c-1.8-3.2-3.5-6.1-5.1-8.9c-0.4-0.7-0.8-1.4-1.2-2
		s-0.8-1.3-1.2-1.9c-0.8-1.2-1.5-2.4-2.2-3.5c-2.7-4.5-5.1-7.9-6.7-10.2C531.3,221.9,530.5,220.6,530.5,220.6z"/>
	<path class="st1" d="M447.1,649c0,0-1.1,0.7-3.2,1.9c-2.1,1.3-5.2,3.2-9.4,5.4c-8.3,4.6-20.7,11-37.4,17.4
		c-2.1,0.8-4.2,1.5-6.4,2.3c-2.2,0.8-4.5,1.6-6.8,2.3s-4.7,1.5-7.2,2.3c-2.5,0.7-5,1.4-7.6,2.1c-10.4,2.8-21.8,5.1-34.1,6.9
		c-12.3,1.7-25.5,2.8-39.5,2.9c-3.5,0-7-0.1-10.5-0.1c-0.9,0-1.8,0-2.7,0c-0.9-0.1-1.8-0.1-2.7-0.2c-1.8-0.1-3.6-0.2-5.5-0.4
		c-1.8-0.1-3.7-0.2-5.5-0.4c-0.9,0-1.9-0.1-2.8-0.3c-0.9-0.1-1.9-0.2-2.8-0.3c-3.7-0.5-7.5-0.8-11.3-1.4
		c-15.2-2.2-30.8-5.8-46.6-10.8s-31.7-11.5-47.3-19.8c-15.6-8.2-30.9-18.1-45.4-29.6c-14.6-11.5-28.3-24.6-40.9-39.2
		c-25.2-29.1-45.6-64.3-57.8-103c-6.1-19.3-10.3-39.4-12.3-59.9C1,422,0.6,416.9,0.3,411.8l-0.2-7.7L0,400.2l-0.1-1.9v-0.5
		c0,0,0-0.5,0-0.6v-0.9l0.2-7.6l0.1-3.8c0-1.3,0-2.5,0.2-3.8l0.6-7.8l0.3-3.9c0.1-1.3,0.2-2.6,0.4-3.9c2.2-20.5,6.6-40.7,13-60.2
		s14.8-38.2,24.9-55.8c20.2-35.2,47.5-65.3,78.3-88.5c15.4-11.6,31.6-21.5,48.3-29.6c16.7-8.1,33.7-14.4,50.7-19.1
		c17-4.7,33.9-7.7,50.4-9.3c4.1-0.3,8.2-0.5,12.3-0.8c1-0.1,2-0.2,3-0.2s2,0,3,0c2,0,4-0.1,6-0.1s4-0.1,6-0.1c2,0.1,3.9,0.1,5.8,0.2
		s3.9,0.1,5.8,0.2c1,0,1.9,0.1,2.9,0.1c1,0.1,1.9,0.2,2.9,0.2c30.7,2.1,58.2,8.9,81.5,17.5c23.3,8.7,42.4,19.2,57.3,28.9
		c1.9,1.1,3.6,2.5,5.4,3.6c1.7,1.2,3.4,2.4,5,3.5c0.8,0.6,1.6,1.1,2.4,1.7c0.8,0.6,1.5,1.2,2.2,1.7c1.5,1.1,2.9,2.2,4.3,3.3
		c1.4,1.1,2.7,2.1,3.9,3c1.2,1,2.4,2,3.5,3c2.2,1.9,4.3,3.6,6.1,5.1c3.6,3.2,6.2,5.7,8,7.3c1.8,1.7,2.7,2.5,2.7,2.5s-1-0.8-2.8-2.4
		c-1.9-1.6-4.6-4-8.2-7c-7.4-5.9-18.4-14.4-33.5-23.7c-15.1-9.2-34.3-18.9-57.5-27c-0.7-0.3-1.4-0.5-2.2-0.8
		c-0.7-0.2-1.5-0.5-2.2-0.7c-1.5-0.5-3-0.9-4.5-1.4c-3-0.9-6.1-1.9-9.2-2.7c-3.2-0.8-6.3-1.6-9.6-2.5c-3.3-0.7-6.6-1.4-10-2.1
		c-1.7-0.3-3.4-0.7-5.1-1s-3.4-0.5-5.2-0.8c-1.7-0.3-3.5-0.6-5.2-0.8c-0.9-0.1-1.8-0.3-2.6-0.4c-0.9-0.1-1.8-0.2-2.7-0.3
		c-3.6-0.4-7.2-0.8-10.9-1.2c-3.7-0.2-7.4-0.5-11.1-0.7c-0.9-0.1-1.9-0.1-2.8-0.2c-0.9,0-1.9,0-2.9-0.1c-1.9,0-3.8-0.1-5.8-0.1
		c-1.9,0-3.9-0.1-5.8-0.1c-1.9,0.1-3.8,0.1-5.8,0.2s-3.9,0.1-5.9,0.2c-1,0-2,0.1-3,0.1c-1,0.1-2,0.2-3,0.2c-4,0.3-8,0.7-12,1
		c-16.1,1.9-32.6,5-49.1,9.8c-33,9.5-66.1,25.7-95.7,48.5c-14.7,11.9-28.7,24.9-41.4,39.4c-3.1,3.7-6.4,7.2-9.2,11.1
		c-1.5,1.9-3,3.8-4.5,5.7l-1.1,1.4l-1,1.5l-2.1,3c-1.4,2-2.8,4-4.2,6c-1.4,2-2.6,4.1-4,6.1c-1.3,2.1-2.6,4.1-3.9,6.2
		c-1.2,2.1-2.4,4.2-3.7,6.4c-9.7,17-17.8,35.2-23.9,54c-6.1,18.9-10.3,38.4-12.4,58.2c-0.2,1.2-0.3,2.5-0.4,3.7l-0.3,3.7l-0.6,7.4
		c-0.1,1.2-0.1,2.5-0.2,3.8L10,389l-0.2,7.6v0.9c0,0.2,0,0.1,0,0.3v0.5v1.9l0.1,3.7l0.2,7.5c0.3,5,0.7,9.9,1.1,14.9
		c1.9,19.7,5.9,39.2,11.8,57.9c5.9,18.7,13.6,36.7,22.9,53.5c9.3,16.8,20.2,32.5,32.3,46.8c24.2,28.6,53,51.5,83.1,67.9
		c15.1,8.3,30.5,14.8,45.9,20c15.3,5.2,30.6,8.9,45.4,11.5c3.7,0.6,7.4,1,11.1,1.6c0.9,0.1,1.8,0.3,2.7,0.4c0.9,0.1,1.8,0.2,2.7,0.3
		c1.8,0.2,3.6,0.3,5.4,0.5s3.6,0.3,5.3,0.5c0.9,0.1,1.8,0.2,2.6,0.2c0.9,0,1.8,0.1,2.7,0.1c3.5,0.1,7.1,0.3,10.5,0.4
		c13.6,0.3,26.8-0.4,38.9-1.8c24.4-2.8,45.2-8.2,61.9-14c16.7-5.8,29.3-11.7,37.8-16c4.3-2.1,7.4-3.9,9.6-5.1
		C445.9,649.6,447.1,649,447.1,649z"/>
</g>
<path class="st1" d="M330.1,106.7c0,0-5.6,42.9-55,85.8c-21.1,69.7,16.6,220.7,16.6,220.7c25.6,122.4-11.3,193.6-4.5,206.4
	c31.4,18.6,48.3,68,48.3,68c42-125.3,0.6-193.8-1.6-261c32.9,74.2,102.6,92.6,130.3,140.8c-11,20.6-16.1,49.5-2.4,82.7
	c0.4-35.7,12.1-56.7,18.6-62.1c17.1,4.3,39.8,43.4,60.1,85.6c-46-176-150.1-182-165.2-290.8c36.9-26.4,152.1-101.3,151.4-221.4
	c-25.4,56.1-96.8,83.8-96.8,83.8C399,347.6,338.8,357.9,330.1,359C306,323.7,374.2,176.8,330.1,106.7z"/>
</svg>
